#!OML:ASF X:\für Bonn\!DataBase\2005_08_10_Bjorn_Final\c3d\bjorn.ASF
:FULLY-SPECIFIED
:DEGREES
293
root 5.91521 19.2656 1.5203 485.137 83.3771 -237.227
lowerback 0.504649 0.621442 7.66209
upperback 10.0404 0.929812 -1.00822
thorax 10.6328 1.3693 -5.26255
lowerneck 3.80385 -1.52148 1.33102
upperneck 15.7775 -1.11769 -2.81658
head 4.51778 -0.361254 -1.19778
rclavicle 3.61788e-014 6.36111e-015
rhumerus -20.8921 -16.5558 -73.8825
rradius 30.257
rwrist 4.82052
rhand -10.3113 14.4142
rfingers 7.12502
rthumb 15.6839 -14.9702
lclavicle 3.61788e-014 6.36111e-015
lhumerus -17.9684 3.42242 67.0403
lradius 44.6041
lwrist -19.5701
lhand -33.087 -18.0109
lfingers 7.12502
lthumb -6.29824 11.8754
rfemur -21.0955 -6.6504 11.8372
rtibia 34.5091
rfoot -11.8332 9.58423
rtoes -9.82004
lfemur -12.7342 0.273551 -13.6904
ltibia 66.5519
lfoot -9.67632 -7.17756
ltoes -22.9573
294
root 5.96913 19.2765 1.52954 483.379 83.4487 -238.768
lowerback 0.51879 0.618599 7.90421
upperback 10.0339 0.90255 -0.874379
thorax 10.6202 1.36882 -5.25547
lowerneck 3.63986 -1.46019 1.19216
upperneck 16.1008 -0.982227 -3.05627
head 4.67397 -0.308244 -1.25752
rclavicle 4.77083e-015 -2.62396e-014
rhumerus -20.5211 -16.3729 -73.7634
rradius 30.2449
rwrist 4.79245
rhand -10.3343 14.3923
rfingers 7.12502
rthumb 15.6617 -14.9938
lclavicle 4.77083e-015 -2.62396e-014
lhumerus -18.2474 3.55801 67.0677
lradius 44.5266
lwrist -19.4625
lhand -33.0012 -17.9372
lfingers 7.12502
lthumb -6.2154 11.9516
rfemur -20.5427 -6.43246 11.8172
rtibia 34.2307
rfoot -11.9353 9.53099
rtoes -9.86728
lfemur -13.7847 0.548462 -13.8592
ltibia 68.2431
lfoot -9.89215 -7.26722
ltoes -23.4224
295
root 6.02228 19.2865 1.53771 481.491 83.4933 -240.421
lowerback 0.53594 0.617396 8.12789
upperback 10.047 0.881804 -0.762193
thorax 10.6293 1.37342 -5.26068
lowerneck 3.50831 -1.40735 1.12306
upperneck 16.3615 -0.858751 -3.30677
head 4.8012 -0.258945 -1.33281
rclavicle -8.34896e-015 1.43125e-014
rhumerus -20.133 -16.2558 -73.6849
rradius 30.2328
rwrist 4.77268
rhand -10.3334 14.4162
rfingers 7.12502
rthumb 15.6625 -14.9699
lclavicle -8.34896e-015 1.43125e-014
lhumerus -18.486 3.71533 67.0686
lradius 44.4493
lwrist -19.4058
lhand -32.8969 -17.7716
lfingers 7.12502
lthumb -6.11471 12.1202
rfemur -19.9858 -6.22842 11.7651
rtibia 33.9855
rfoot -12.0465 9.48954
rtoes -9.81576
lfemur -14.8195 0.807919 -14.0622
ltibia 69.8885
lfoot -10.1667 -7.38074
ltoes -23.6429
296
root 6.07496 19.2945 1.54561 479.487 83.5154 -242.186
lowerback 0.579639 0.62754 8.31407
upperback 10.0368 0.881602 -0.664917
thorax 10.5975 1.38253 -5.25975
lowerneck 3.39101 -1.36999 1.12831
upperneck 16.6796 -0.748182 -3.56372
head 4.94815 -0.210863 -1.42503
rclavicle -1.31198e-014 -9.54166e-015
rhumerus -19.8195 -16.2555 -73.5973
rradius 30.2542
rwrist 4.87859
rhand -10.3135 14.4411
rfingers 7.12502
rthumb 15.6818 -14.9434
lclavicle -1.31198e-014 -9.54166e-015
lhumerus -18.7735 3.76249 67.0443
lradius 44.4009
lwrist -19.2209
lhand -32.8376 -17.7284
lfingers 7.12502
lthumb -6.05742 12.165
rfemur -19.4379 -6.04016 11.6902
rtibia 33.7556
rfoot -12.1599 9.47219
rtoes -9.76154
lfemur -15.8464 1.07225 -14.2896
ltibia 71.4606
lfoot -10.4501 -7.47822
ltoes -23.8641
297
root 6.12645 19.3018 1.55159 477.503 83.5046 -243.947
lowerback 0.590787 0.63647 8.47587
upperback 10.0428 0.877942 -0.561006
thorax 10.6023 1.38978 -5.23751
lowerneck 3.13469 -1.34203 1.13246
upperneck 17.4674 -0.619394 -3.93073
head 4.69977 -0.180724 -1.40529
rclavicle -2.34566e-014 -6.04305e-014
rhumerus -19.4505 -16.3334 -73.5063
rradius 30.2187
rwrist 5.0584
rhand -10.3322 14.4974
rfingers 7.12502
rthumb 15.6637 -14.8885
lclavicle -2.34566e-014 -6.04305e-014
lhumerus -18.9801 3.85977 67.051
lradius 44.3147
lwrist -19.0423
lhand -32.7462 -17.7113
lfingers 7.12502
lthumb -5.9692 12.1847
rfemur -18.9128 -5.87302 11.5859
rtibia 33.5384
rfoot -12.2582 9.48276
rtoes -9.60547
lfemur -16.9148 1.32137 -14.5581
ltibia 72.9535
lfoot -10.6858 -7.51856
ltoes -23.9442
298
root 6.17794 19.3094 1.55742 475.532 83.4895 -245.704
lowerback 0.603118 0.655017 8.61825
upperback 10.0326 0.887308 -0.449294
thorax 10.5886 1.39937 -5.19492
lowerneck 3.07579 -1.33067 1.17496
upperneck 17.7455 -0.534209 -4.23549
head 4.79505 -0.147912 -1.50632
rclavicle -7.95139e-016 0
rhumerus -19.1198 -16.3638 -73.4008
rradius 30.2169
rwrist 5.23958
rhand -10.366 14.5674
rfingers 7.12502
rthumb 15.6312 -14.8211
lclavicle -7.95139e-016 0
lhumerus -19.212 3.93432 67.0686
lradius 44.2244
lwrist -18.8912
lhand -32.6977 -17.7178
lfingers 7.12502
lthumb -5.9224 12.1795
rfemur -18.3984 -5.69731 11.4898
rtibia 33.3107
rfoot -12.3903 9.44045
rtoes -9.60841
lfemur -17.9735 1.54558 -14.8305
ltibia 74.3334
lfoot -10.8908 -7.54539
ltoes -23.9436
299
root 6.22862 19.3169 1.56232 473.381 83.4456 -247.631
lowerback 0.626072 0.662901 8.72596
upperback 10.0313 0.886516 -0.348884
thorax 10.5757 1.40221 -5.14608
lowerneck 3.03992 -1.30246 1.21582
upperneck 18.0065 -0.42557 -4.53806
head 4.8824 -0.103831 -1.60569
rclavicle -3.18055e-015 -6.36111e-015
rhumerus -18.7697 -16.3517 -73.3421
rradius 30.2201
rwrist 5.35142
rhand -10.395 14.5507
rfingers 7.12502
rthumb 15.6033 -14.84
lclavicle -3.18055e-015 -6.36111e-015
lhumerus -19.425 4.06152 67.0584
lradius 44.1149
lwrist -18.7263
lhand -32.6513 -17.7409
lfingers 7.12502
lthumb -5.87759 12.1576
rfemur -17.8599 -5.51273 11.3513
rtibia 33.0666
rfoot -12.4827 9.42313
rtoes -9.52116
lfemur -19.0272 1.80033 -15.1381
ltibia 75.6243
lfoot -11.044 -7.52135
ltoes -23.8554
300
root 6.27976 19.3272 1.56571 471.358 83.4288 -249.398
lowerback 0.660801 0.673975 8.88449
upperback 10.0427 0.888829 -0.237324
thorax 10.5733 1.412 -5.1131
lowerneck 3.03266 -1.29642 1.27754
upperneck 18.2279 -0.345368 -4.8597
head 4.95199 -0.0732736 -1.71522
rclavicle 8.34896e-015 2.38542e-014
rhumerus -18.427 -16.3039 -73.2902
rradius 30.2458
rwrist 5.35144
rhand -10.4153 14.5626
rfingers 7.12502
rthumb 15.5837 -14.8296
lclavicle 8.34896e-015 2.38542e-014
lhumerus -19.6246 4.1992 67.0737
lradius 44.0245
lwrist -18.6208
lhand -32.614 -17.7376
lfingers 7.12502
lthumb -5.84159 12.1618
rfemur -17.2753 -5.31981 11.2536
rtibia 32.8026
rfoot -12.5922 9.3739
rtoes -9.54475
lfemur -20.0502 2.03406 -15.4033
ltibia 76.8347
lfoot -11.2102 -7.51209
ltoes -23.8357
301
root 6.33011 19.3365 1.56834 469.4 83.426 -251.096
lowerback 0.694566 0.685006 9.04273
upperback 10.0658 0.889912 -0.102058
thorax 10.5841 1.42122 -5.05384
lowerneck 3.02208 -1.28053 1.29225
upperneck 18.4283 -0.255882 -5.15245
head 5.01679 -0.0402344 -1.80764
rclavicle 2.3059e-014 3.49861e-014
rhumerus -18.0638 -16.2338 -73.2216
rradius 30.2332
rwrist 5.4231
rhand -10.4456 14.6248
rfingers 7.12502
rthumb 15.5545 -14.7696
lclavicle 2.3059e-014 3.49861e-014
lhumerus -19.7877 4.36739 67.1054
lradius 43.888
lwrist -18.6072
lhand -32.5787 -17.7684
lfingers 7.12502
lthumb -5.80743 12.132
rfemur -16.6885 -5.13648 11.1786
rtibia 32.5291
rfoot -12.6964 9.35972
rtoes -9.55296
lfemur -21.0797 2.25357 -15.6433
ltibia 77.9902
lfoot -11.373 -7.57218
ltoes -23.718
302
root 6.37936 19.3428 1.56742 467.599 83.4834 -252.621
lowerback 0.749472 0.687599 9.32809
upperback 10.0925 0.877534 0.021792
thorax 10.5914 1.43644 -5.07935
lowerneck 3.05316 -1.2678 1.39182
upperneck 18.5634 -0.168686 -5.49801
head 5.05371 -0.00557785 -1.93051
rclavicle -2.3059e-014 6.36111e-015
rhumerus -17.7064 -16.0457 -73.2011
rradius 30.2593
rwrist 5.37769
rhand -10.4619 14.6521
rfingers 7.12502
rthumb 15.5388 -14.7436
lclavicle -2.3059e-014 6.36111e-015
lhumerus -19.943 4.51343 67.1012
lradius 43.7651
lwrist -18.6251
lhand -32.6796 -17.7606
lfingers 7.12502
lthumb -5.90493 12.1371
rfemur -16.0883 -4.95217 11.1693
rtibia 32.2626
rfoot -12.7932 9.32912
rtoes -9.53364
lfemur -22.1125 2.47604 -15.8069
ltibia 79.104
lfoot -11.5919 -7.66804
ltoes -23.7664
303
root 6.42715 19.3482 1.56737 465.678 83.4924 -254.258
lowerback 0.821313 0.678518 9.50642
upperback 10.1275 0.854686 0.181853
thorax 10.5895 1.43519 -5.00629
lowerneck 3.02887 -1.24812 1.40079
upperneck 18.7452 -0.0654971 -5.84172
head 5.11588 0.0301742 -2.03783
rclavicle -2.54444e-014 -1.43125e-014
rhumerus -17.3252 -15.7559 -73.1287
rradius 30.2746
rwrist 5.32268
rhand -10.4479 14.6777
rfingers 7.12502
rthumb 15.5523 -14.7169
lclavicle -2.54444e-014 -1.43125e-014
lhumerus -20.0997 4.74783 67.1616
lradius 43.6284
lwrist -18.7138
lhand -32.8193 -17.7911
lfingers 7.12502
lthumb -6.03976 12.1028
rfemur -15.4996 -4.75964 11.1142
rtibia 32.0138
rfoot -12.8901 9.28909
rtoes -9.60769
lfemur -23.1482 2.66425 -16.0204
ltibia 80.1606
lfoot -11.8171 -7.79894
ltoes -23.8911
